# xmcd
#
# Track frame offsets:
#	150
#	15472
#	31964
#	45508
#	59210
#	71345
#	85062
#	105870
#	122924
#	137587
#	147988
#	166982
#
# Disc length: 2451 seconds
#
# Revision: 1
# Processed by: cddbd v1.4PL0 Copyright (c) Steve Scherf et al.
# Submitted via: EasyCDDAExtractor 5.0.7
#
DISCID=9b09910c
DTITLE=Butch Ryan - Honeylove
DYEAR=2003
DGENRE=Country
TTITLE0=Elvis Is Not Dead
TTITLE1=Over You
TTITLE2=Dimestrore Romance
TTITLE3=First Kiss
TTITLE4=Where I Belong
TTITLE5=Honeylove
TTITLE6=Wastin' Time
TTITLE7=There Comes A TIme
TTITLE8=So Good Together
TTITLE9=Tonight I Want To Sleep With My Baby
TTITLE10=Question Of Doubt
TTITLE11=Georgia Red Clay
EXTD=
EXTT0=
EXTT1=
EXTT2=
EXTT3=
EXTT4=
EXTT5=
EXTT6=
EXTT7=
EXTT8=
EXTT9=
EXTT10=
EXTT11=
PLAYORDER=
